<svg xmlns="http://www.w3.org/2000/svg" width="560" height="417" viewBox="0 0 560 417" font-family="ui-monospace,SFMono-Regular,Menlo,Consolas,monospace" font-size="14">
<style>.ln{opacity:0;transform:translateX(-8px);animation:in .45s ease-out forwards}@keyframes in{to{opacity:1;transform:none}}</style>
<rect x="0.5" y="0.5" width="559" height="416" rx="8" fill="#0d1117" stroke="#30363d"/>
<circle cx="22" cy="21" r="6" fill="#ff5f57"/><circle cx="42" cy="21" r="6" fill="#febc2e"/><circle cx="62" cy="21" r="6" fill="#28c840"/>
<text x="280" y="26" text-anchor="middle" fill="#8b949e">xavrir@github ~ $ neofetch</text>
<line x1="1" y1="40" x2="559" y2="40" stroke="#30363d"/>
<g class="ln" style="animation-delay:0.15s"><text x="24" y="72" fill="#58a6ff">xavrir@github ~ $ neofetch</text><text x="24" y="88" fill="#8b949e">--------------------------</text></g>
<g class="ln" style="animation-delay:0.46s"><text x="24" y="118.15"><tspan fill="#39d353">Name</tspan><tspan fill="#8b949e">: </tspan><tspan x="130" fill="#c9d1d9">Rizky / Xavrir</tspan></text></g>
<g class="ln" style="animation-delay:0.61s"><text x="24" y="145.15"><tspan fill="#39d353">Role</tspan><tspan fill="#8b949e">: </tspan><tspan x="130" fill="#c9d1d9">Software Engineer</tspan></text></g>
<g class="ln" style="animation-delay:0.77s"><text x="24" y="172.15"><tspan fill="#39d353">Study</tspan><tspan fill="#8b949e">: </tspan><tspan x="130" fill="#c9d1d9">BINUS University</tspan></text></g>
<g class="ln" style="animation-delay:1.07s"><text x="24" y="211.3"><tspan fill="#39d353">Built</tspan><tspan fill="#8b949e">: </tspan><tspan x="130" fill="#c9d1d9">TuxTuner / Masjid Display</tspan></text></g>
<g class="ln" style="animation-delay:1.23s"><text x="24" y="238.3"><tspan fill="#39d353">Also</tspan><tspan fill="#8b949e">: </tspan><tspan x="130" fill="#c9d1d9">LuhutOS / FreshTrack</tspan></text></g>
<g class="ln" style="animation-delay:1.54s"><text x="24" y="277.45"><tspan fill="#39d353">Stack</tspan><tspan fill="#8b949e">: </tspan><tspan x="130" fill="#c9d1d9">Rust / TypeScript / Go / Python</tspan></text></g>
<g class="ln" style="animation-delay:1.69s"><text x="24" y="304.45"><tspan fill="#39d353">Focus</tspan><tspan fill="#8b949e">: </tspan><tspan x="130" fill="#c9d1d9">Systems / apps / open source</tspan></text></g>
<g class="ln" style="animation-delay:2.00s"><text x="24" y="343.59999999999997"><tspan fill="#39d353">Profile</tspan><tspan fill="#8b949e">: </tspan><tspan x="130" fill="#c9d1d9">github.com/Xavrir</tspan></text></g>
<g class="ln" style="animation-delay:2.30s"><rect x="160" y="376.59999999999997" width="30" height="16" fill="#ff7b72"/><rect x="190" y="376.59999999999997" width="30" height="16" fill="#ffa657"/><rect x="220" y="376.59999999999997" width="30" height="16" fill="#d29922"/><rect x="250" y="376.59999999999997" width="30" height="16" fill="#39d353"/><rect x="280" y="376.59999999999997" width="30" height="16" fill="#58a6ff"/><rect x="310" y="376.59999999999997" width="30" height="16" fill="#bc8cff"/><rect x="340" y="376.59999999999997" width="30" height="16" fill="#f778ba"/><rect x="370" y="376.59999999999997" width="30" height="16" fill="#c9d1d9"/></g>
</svg>